<svg width="44" height="44" viewBox="0 0 44 44" fill="none" xmlns="http://www.w3.org/2000/svg">
<rect width="44" height="44" rx="22" fill="#33C173"/>
<mask id="mask0_2188_4583" style="mask-type:alpha" maskUnits="userSpaceOnUse" x="12" y="12" width="20" height="20">
<rect x="12" y="12" width="20" height="20" fill="#D9D9D9"/>
</mask>
<g mask="url(#mask0_2188_4583)">
<path d="M22 30.5V29H27.5V28H24V22H27.5V21C27.5 19.4447 26.9653 18.139 25.896 17.083C24.8267 16.0277 23.528 15.5 22 15.5C20.486 15.5 19.191 16.0277 18.115 17.083C17.0383 18.139 16.5 19.4447 16.5 21V22H20V28H16.5C16.0973 27.972 15.7467 27.8193 15.448 27.542C15.1493 27.264 15 26.9167 15 26.5V21C15 20.028 15.184 19.1147 15.552 18.26C15.92 17.406 16.4233 16.663 17.062 16.031C17.7013 15.399 18.4447 14.9027 19.292 14.542C20.1387 14.1807 21.0413 14 22 14C22.9587 14 23.865 14.1807 24.719 14.542C25.573 14.9027 26.316 15.399 26.948 16.031C27.58 16.663 28.08 17.406 28.448 18.26C28.816 19.1147 29 20.028 29 21V29C29 29.4027 28.854 29.7533 28.562 30.052C28.2707 30.3507 27.9167 30.5 27.5 30.5H22ZM16.5 26.5H18.5V23.5H16.5V26.5ZM25.5 26.5H27.5V23.5H25.5V26.5Z" fill="white"/>
</g>
</svg>
