<svg width="44" height="44" viewBox="0 0 44 44" fill="none" xmlns="http://www.w3.org/2000/svg">
<rect width="44" height="44" rx="22" fill="#33C173"/>
<mask id="mask0_2188_4578" style="mask-type:alpha" maskUnits="userSpaceOnUse" x="12" y="12" width="20" height="20">
<rect x="12" y="12" width="20" height="20" fill="#D9D9D9"/>
</mask>
<g mask="url(#mask0_2188_4578)">
<path d="M15.5 29C15.0833 29 14.7293 28.854 14.438 28.562C14.146 28.2707 14 27.9167 14 27.5V18.5C14 18.0833 14.146 17.7293 14.438 17.438C14.7293 17.146 15.0833 17 15.5 17H18V15.5C18 15.0833 18.146 14.7293 18.438 14.438C18.7293 14.146 19.0833 14 19.5 14H24.5C24.9167 14 25.2707 14.146 25.562 14.438C25.854 14.7293 26 15.0833 26 15.5V17H28.5C28.9167 17 29.2707 17.146 29.562 17.438C29.854 17.7293 30 18.0833 30 18.5V27.5C30 27.9167 29.854 28.2707 29.562 28.562C29.2707 28.854 28.9167 29 28.5 29H15.5ZM19.5 17H24.5V15.5H19.5V17ZM28.5 24.25H24.5V26H19.5V24.25H15.5V27.5H28.5V24.25ZM21 24.5H23V22.5H21V24.5ZM15.5 22.75H19.5V21H24.5V22.75H28.5V18.5H15.5V22.75Z" fill="white"/>
</g>
</svg>
