<svg width="44" height="44" viewBox="0 0 44 44" fill="none" xmlns="http://www.w3.org/2000/svg">
<rect width="44" height="44" rx="22" fill="#ABAFB1"/>
<mask id="mask0_2188_4535" style="mask-type:alpha" maskUnits="userSpaceOnUse" x="12" y="12" width="20" height="20">
<rect x="12" y="12" width="20" height="20" fill="#D9D9D9"/>
</mask>
<g mask="url(#mask0_2188_4535)">
<path d="M16.9374 26.0625C17.6874 25.5347 18.4895 25.1424 19.3436 24.8854C20.1978 24.6285 21.0832 24.5 21.9999 24.5C22.9165 24.5 23.802 24.6285 24.6561 24.8854C25.5103 25.1424 26.3124 25.5347 27.0624 26.0625C27.5485 25.4931 27.9096 24.8611 28.1457 24.1667C28.3818 23.4722 28.4999 22.75 28.4999 22C28.4999 20.199 27.8663 18.6654 26.5993 17.3992C25.3322 16.1331 23.7975 15.5 21.9951 15.5C20.1927 15.5 18.6596 16.1331 17.3957 17.3992C16.1318 18.6654 15.4999 20.199 15.4999 22C15.4999 22.75 15.6179 23.4722 15.854 24.1667C16.0902 24.8611 16.4513 25.4931 16.9374 26.0625ZM21.9999 23.5C21.1665 23.5 20.4582 23.2083 19.8749 22.625C19.2915 22.0417 18.9999 21.3333 18.9999 20.5C18.9999 19.6667 19.2915 18.9583 19.8749 18.375C20.4582 17.7917 21.1665 17.5 21.9999 17.5C22.8332 17.5 23.5415 17.7917 24.1249 18.375C24.7082 18.9583 24.9999 19.6667 24.9999 20.5C24.9999 21.3333 24.7082 22.0417 24.1249 22.625C23.5415 23.2083 22.8332 23.5 21.9999 23.5ZM22.0056 30C20.9046 30 19.8679 29.7917 18.8957 29.375C17.9235 28.9583 17.0728 28.3854 16.3436 27.6562C15.6145 26.9271 15.0415 26.0767 14.6249 25.105C14.2082 24.1334 13.9999 23.0952 13.9999 21.9905C13.9999 20.8857 14.2082 19.8507 14.6249 18.8854C15.0415 17.9201 15.6145 17.0729 16.3436 16.3438C17.0728 15.6146 17.9232 15.0417 18.8948 14.625C19.8665 14.2083 20.9047 14 22.0094 14C23.1142 14 24.1492 14.2083 25.1145 14.625C26.0797 15.0417 26.927 15.6146 27.6561 16.3438C28.3853 17.0729 28.9582 17.9217 29.3749 18.8901C29.7915 19.8585 29.9999 20.8932 29.9999 21.9943C29.9999 23.0953 29.7915 24.1319 29.3749 25.1042C28.9582 26.0764 28.3853 26.9271 27.6561 27.6562C26.927 28.3854 26.0782 28.9583 25.1098 29.375C24.1414 29.7917 23.1067 30 22.0056 30ZM21.9999 28.5C22.7221 28.5 23.4165 28.3854 24.0832 28.1562C24.7499 27.9271 25.3749 27.5903 25.9582 27.1458C25.361 26.7708 24.729 26.4861 24.0624 26.2917C23.3957 26.0972 22.7082 26 21.9999 26C21.2915 26 20.6006 26.0938 19.927 26.2812C19.2534 26.4688 18.6249 26.7569 18.0415 27.1458C18.6249 27.5903 19.2499 27.9271 19.9165 28.1562C20.5832 28.3854 21.2777 28.5 21.9999 28.5ZM21.9999 22C22.4165 22 22.7707 21.8542 23.0624 21.5625C23.354 21.2708 23.4999 20.9167 23.4999 20.5C23.4999 20.0833 23.354 19.7292 23.0624 19.4375C22.7707 19.1458 22.4165 19 21.9999 19C21.5832 19 21.229 19.1458 20.9374 19.4375C20.6457 19.7292 20.4999 20.0833 20.4999 20.5C20.4999 20.9167 20.6457 21.2708 20.9374 21.5625C21.229 21.8542 21.5832 22 21.9999 22Z" fill="white"/>
</g>
</svg>
