<svg width="44" height="44" viewBox="0 0 44 44" fill="none" xmlns="http://www.w3.org/2000/svg">
<rect width="44" height="44" rx="22" fill="#33C173"/>
<mask id="mask0_2188_4567" style="mask-type:alpha" maskUnits="userSpaceOnUse" x="12" y="12" width="20" height="20">
<rect x="12" y="12" width="20" height="20" fill="#D9D9D9"/>
</mask>
<g mask="url(#mask0_2188_4567)">
<path d="M22 22C21.1667 22 20.4583 21.7083 19.875 21.125C19.2917 20.5417 19 19.8333 19 19C19 18.1667 19.2917 17.4583 19.875 16.875C20.4583 16.2917 21.1667 16 22 16C22.8333 16 23.5417 16.2917 24.125 16.875C24.7083 17.4583 25 18.1667 25 19C25 19.8333 24.7083 20.5417 24.125 21.125C23.5417 21.7083 22.8333 22 22 22ZM16 28V26C16 25.6807 16.0867 25.3787 16.26 25.094C16.434 24.8093 16.6737 24.5697 16.979 24.375C17.743 23.9303 18.552 23.59 19.406 23.354C20.2607 23.118 21.1253 23 22 23C22.8747 23 23.7393 23.118 24.594 23.354C25.448 23.59 26.257 23.9303 27.021 24.375C27.3263 24.5557 27.566 24.7917 27.74 25.083C27.9133 25.375 28 25.6807 28 26V28H16ZM17.5 26.5H26.5V26C26.5 25.9307 26.4793 25.8647 26.438 25.802C26.396 25.7393 26.3403 25.6943 26.271 25.667C25.6317 25.2777 24.951 24.986 24.229 24.792C23.507 24.5973 22.764 24.5 22 24.5C21.236 24.5 20.493 24.5973 19.771 24.792C19.049 24.986 18.3683 25.2777 17.729 25.667C17.6597 25.7223 17.604 25.7743 17.562 25.823C17.5207 25.8717 17.5 25.9307 17.5 26V26.5ZM22 20.5C22.4167 20.5 22.7707 20.354 23.062 20.062C23.354 19.7707 23.5 19.4167 23.5 19C23.5 18.5833 23.354 18.2293 23.062 17.938C22.7707 17.646 22.4167 17.5 22 17.5C21.5833 17.5 21.2293 17.646 20.938 17.938C20.646 18.2293 20.5 18.5833 20.5 19C20.5 19.4167 20.646 19.7707 20.938 20.062C21.2293 20.354 21.5833 20.5 22 20.5Z" fill="white"/>
</g>
</svg>
