<svg width="44" height="44" viewBox="0 0 44 44" fill="none" xmlns="http://www.w3.org/2000/svg">
<rect width="44" height="44" rx="22" fill="#ABAFB1"/>
<mask id="mask0_2188_4545" style="mask-type:alpha" maskUnits="userSpaceOnUse" x="12" y="12" width="20" height="20">
<rect x="12" y="12" width="20" height="20" fill="#D9D9D9"/>
</mask>
<g mask="url(#mask0_2188_4545)">
<path d="M24.5 28C24.3583 28 24.2396 27.9521 24.1438 27.8562C24.0479 27.7604 24 27.6417 24 27.5V24.5C24 24.3583 24.0479 24.2396 24.1438 24.1438C24.2396 24.0479 24.3583 24 24.5 24H25V23C25 22.5972 25.1473 22.2465 25.4419 21.9479C25.7365 21.6493 26.0907 21.5 26.5044 21.5C26.9181 21.5 27.2708 21.6493 27.5625 21.9479C27.8542 22.2465 28 22.5972 28 23V24H28.5C28.6417 24 28.7604 24.0479 28.8562 24.1438C28.9521 24.2396 29 24.3583 29 24.5V27.5C29 27.6417 28.9521 27.7604 28.8562 27.8562C28.7604 27.9521 28.6417 28 28.5 28H24.5ZM25.75 24H27.25V23C27.25 22.7875 27.1785 22.6094 27.0356 22.4656C26.8927 22.3219 26.7156 22.25 26.5044 22.25C26.2931 22.25 26.1146 22.3219 25.9688 22.4656C25.8229 22.6094 25.75 22.7875 25.75 23V24Z" fill="white"/>
<path d="M21.0293 22C20.196 22 19.4876 21.7083 18.9043 21.125C18.321 20.5417 18.0293 19.8333 18.0293 19C18.0293 18.1667 18.321 17.4583 18.9043 16.875C19.4876 16.2917 20.196 16 21.0293 16C21.8626 16 22.571 16.2917 23.1543 16.875C23.7376 17.4583 24.0293 18.1667 24.0293 19C24.0293 19.8333 23.7376 20.5417 23.1543 21.125C22.571 21.7083 21.8626 22 21.0293 22ZM15.0293 28V26.083C15.0293 25.7223 15.116 25.3927 15.2893 25.094C15.4633 24.7953 15.703 24.5557 16.0083 24.375C16.7723 23.9303 17.578 23.59 18.4253 23.354C19.2726 23.118 20.1406 23 21.0293 23C21.182 23 21.3243 23.0033 21.4563 23.01C21.5883 23.0173 21.7306 23.028 21.8833 23.042C21.786 23.278 21.713 23.521 21.6643 23.771C21.6156 24.021 21.5776 24.271 21.5503 24.521L21.0293 24.5C20.2793 24.5 19.5433 24.5973 18.8213 24.792C18.0986 24.986 17.411 25.2777 16.7583 25.667C16.689 25.7083 16.6333 25.7673 16.5913 25.844C16.55 25.92 16.5293 25.9997 16.5293 26.083V26.5H21.7583C21.8276 26.764 21.918 27.021 22.0293 27.271C22.1406 27.521 22.2726 27.764 22.4253 28H15.0293ZM21.0293 20.5C21.446 20.5 21.8 20.354 22.0913 20.062C22.3833 19.7707 22.5293 19.4167 22.5293 19C22.5293 18.5833 22.3833 18.2293 22.0913 17.938C21.8 17.646 21.446 17.5 21.0293 17.5C20.6126 17.5 20.2586 17.646 19.9673 17.938C19.6753 18.2293 19.5293 18.5833 19.5293 19C19.5293 19.4167 19.6753 19.7707 19.9673 20.062C20.2586 20.354 20.6126 20.5 21.0293 20.5Z" fill="white"/>
</g>
</svg>
