<svg width="38" height="36" viewBox="0 0 38 36" fill="none" xmlns="http://www.w3.org/2000/svg">
<path d="M20.1419 35.6603H17.8819C17.7619 35.6407 17.6619 35.6211 17.5419 35.6015C16.7819 35.5036 16.0219 35.4253 15.2819 35.2686C10.9619 34.3482 7.42191 32.194 4.74191 28.7474C1.38191 24.4586 0.261914 19.6019 1.38191 14.3144C2.36191 9.6732 4.94191 6.0307 8.92191 3.36737C12.8619 0.743201 17.2419 -0.177217 21.9619 0.56695C25.3619 1.0957 28.3819 2.52528 30.9419 4.77737C34.0619 7.51903 36.0219 10.9069 36.7619 14.9411C36.8819 15.5874 36.9419 16.2336 37.0419 16.8799V19.0928C37.0419 19.0928 36.9819 19.269 36.9819 19.3669C36.7819 22.0694 35.9819 24.5957 34.5619 26.9065C31.7019 31.5282 27.5619 34.3678 22.1219 35.3861C21.4619 35.5036 20.8019 35.5624 20.1419 35.6603ZM20.5019 16.5274C20.5019 16.3315 20.5019 16.1944 20.5019 16.0574C20.5019 14.1578 20.5019 12.2582 20.5019 10.3586C20.5019 9.88862 20.3619 9.47737 20.0019 9.16403C19.5419 8.77237 18.9819 8.67445 18.4219 8.90945C17.8219 9.16403 17.5019 9.61445 17.5019 10.2607C17.5019 12.1994 17.5019 14.1382 17.5019 16.0965C17.5019 16.2336 17.5019 16.3707 17.5019 16.5274C17.3219 16.5274 17.1819 16.5274 17.0419 16.5274C15.1019 16.5274 13.1419 16.5274 11.2019 16.5274C10.5219 16.5274 10.0219 16.8015 9.74191 17.4086C9.30191 18.3878 10.0219 19.4453 11.1419 19.4453C13.1219 19.4453 15.0819 19.4453 17.0619 19.4453C17.2019 19.4453 17.3419 19.4453 17.5219 19.4453C17.5219 19.6215 17.5219 19.7586 17.5219 19.8957C17.5219 21.7953 17.5219 23.7144 17.5219 25.614C17.5219 26.2994 17.8219 26.789 18.4619 27.0632C19.4419 27.4744 20.5219 26.7694 20.5219 25.6924C20.5219 23.7536 20.5219 21.8149 20.5219 19.8565C20.5219 19.7194 20.5219 19.6019 20.5219 19.4453C20.7219 19.4453 20.8619 19.4453 21.0019 19.4453C22.9419 19.4453 24.8819 19.4453 26.8019 19.4453C27.5019 19.4453 28.0019 19.1711 28.2819 18.5444C28.7019 17.5849 27.9819 16.5274 26.8819 16.5274C24.9019 16.5274 22.9419 16.5274 20.9619 16.5274C20.8219 16.5274 20.6819 16.5274 20.5019 16.5274Z" fill="#33C173"/>
</svg>
