<svg width="18" height="18" viewBox="0 0 18 18" fill="none" xmlns="http://www.w3.org/2000/svg">
<path d="M14.4999 6.97917L13.3958 4.58333L10.9999 3.5L13.3958 2.39583L14.4999 0L15.5833 2.39583L17.9791 3.5L15.5833 4.58333L14.4999 6.97917ZM14.4999 17.9792L13.4166 15.5625L10.9999 14.4792L13.4166 13.3958L14.4999 10.9792L15.5833 13.3958L17.9999 14.4792L15.5833 15.5625L14.4999 17.9792ZM6.49994 15.4792L4.47911 11L-6.10352e-05 8.97917L4.47911 6.95833L6.49994 2.47917L8.52077 6.95833L12.9999 8.97917L8.52077 11L6.49994 15.4792ZM6.49994 11.8542L7.39577 9.875L9.37494 8.97917L7.39577 8.08333L6.49994 6.10417L5.60411 8.08333L3.62494 8.97917L5.60411 9.875L6.49994 11.8542Z" fill="white"/>
</svg>
