<svg width="14" height="16" viewBox="0 0 14 16" fill="none" xmlns="http://www.w3.org/2000/svg">
<path d="M4.94161 0.483309C6.30828 0.483309 7.68328 0.483309 9.04994 0.483309C9.22494 0.558309 9.41661 0.599976 9.57494 0.699976C9.95828 0.949976 10.1249 1.31664 10.1333 1.77498C10.1333 1.96664 10.1333 2.15831 10.1333 2.36664C10.1916 2.36664 10.2249 2.36664 10.2583 2.36664C10.9083 2.36664 11.5499 2.36664 12.1999 2.36664C13.0583 2.36664 13.8083 3.03331 13.8749 3.89164C13.9166 4.48331 13.8999 5.07498 13.8916 5.66664C13.8916 5.94164 13.6833 6.11664 13.3999 6.12498C13.1499 6.12498 12.8999 6.12498 12.6416 6.12498V6.30831C12.6416 8.77498 12.6416 11.2416 12.6416 13.7083C12.6416 14.775 11.8999 15.5166 10.8333 15.5166C8.27494 15.5166 5.72494 15.5166 3.16661 15.5166C2.09994 15.5166 1.35828 14.775 1.35828 13.7083C1.35828 11.2333 1.35828 8.76664 1.35828 6.29164V6.12498C1.35828 6.12498 1.31661 6.12498 1.30828 6.12498C1.08328 6.12498 0.858276 6.12498 0.633276 6.12498C0.299943 6.12498 0.108276 5.93331 0.108276 5.59164C0.108276 5.09998 0.108276 4.59998 0.108276 4.10831C0.108276 3.11664 0.874943 2.36664 1.86661 2.35831C2.47494 2.35831 3.09161 2.35831 3.69994 2.35831C3.74994 2.35831 3.80828 2.35831 3.86661 2.35831C3.86661 2.14164 3.86661 1.94998 3.86661 1.75831C3.88328 1.24164 4.10828 0.849976 4.57494 0.608309C4.69161 0.549976 4.82494 0.516642 4.94161 0.474976V0.483309ZM5.11661 10.5166C5.11661 9.90831 5.11661 9.29164 5.11661 8.68331C5.11661 8.28331 4.85828 7.99998 4.49161 7.99998C4.12494 7.99998 3.86661 8.28331 3.86661 8.68331C3.86661 9.89998 3.86661 11.1166 3.86661 12.3333C3.86661 12.725 4.14161 13.0166 4.49994 13.0083C4.85828 13.0083 5.11661 12.7166 5.11661 12.325C5.11661 11.7166 5.11661 11.1083 5.11661 10.5083V10.5166ZM8.87494 10.5083C8.87494 11.1166 8.87494 11.7333 8.87494 12.3416C8.87494 12.725 9.13328 13 9.49161 13.0083C9.84994 13.0083 10.1249 12.7333 10.1249 12.3416C10.1249 11.1166 10.1249 9.88331 10.1249 8.65831C10.1249 8.26664 9.84994 7.99164 9.49161 7.99164C9.13328 7.99164 8.87494 8.27498 8.86661 8.66664C8.86661 9.27498 8.86661 9.89164 8.86661 10.5L8.87494 10.5083ZM7.62494 10.5083C7.62494 9.90831 7.62494 9.29998 7.62494 8.69998C7.62494 8.61664 7.62494 8.53331 7.59994 8.44998C7.51661 8.14998 7.23328 7.96664 6.92494 7.99998C6.62494 8.03331 6.38328 8.28331 6.37494 8.59164C6.37494 9.19998 6.37494 9.80831 6.37494 10.4166C6.37494 11.0666 6.37494 11.7083 6.37494 12.3583C6.37494 12.5666 6.44161 12.7416 6.60828 12.875C6.80828 13.0333 7.02494 13.0666 7.25828 12.9583C7.49161 12.85 7.62494 12.6666 7.62494 12.4C7.62494 11.7666 7.62494 11.1333 7.62494 10.5083ZM5.12494 2.34998H8.86661V1.74998H5.12494V2.34998Z" fill="#33C173"/>
</svg>
