<svg width="16" height="14" viewBox="0 0 16 14" fill="none" xmlns="http://www.w3.org/2000/svg">
<path d="M0 14V0H8V3H16V14H0ZM1.5 12.5H3V11H1.5V12.5ZM1.5 9.33333H3V7.83333H1.5V9.33333ZM1.5 6.16667H3V4.66667H1.5V6.16667ZM1.5 3H3V1.5H1.5V3ZM5 12.5H6.5V11H5V12.5ZM5 9.33333H6.5V7.83333H5V9.33333ZM5 6.16667H6.5V4.66667H5V6.16667ZM5 3H6.5V1.5H5V3ZM8 12.5H14.5V4.5H8V6.16667H9.5V7.66667H8V9.33333H9.5V10.8333H8V12.5ZM11.5 7.66667V6.16667H13V7.66667H11.5ZM11.5 10.8333V9.33333H13V10.8333H11.5Z" fill="white"/>
</svg>
