<svg width="32" height="22" viewBox="0 0 32 22" fill="none" xmlns="http://www.w3.org/2000/svg">
<path d="M16.0129 16.75C17.5507 16.75 18.8635 16.2017 19.9513 15.105C21.0393 14.0084 21.5833 12.6913 21.5833 11.1538C21.5833 9.61601 21.035 8.30324 19.9383 7.21546C18.8417 6.1274 17.5246 5.58337 15.9871 5.58337C14.4493 5.58337 13.1365 6.13171 12.0488 7.22837C10.9607 8.32504 10.4167 9.64212 10.4167 11.1796C10.4167 12.7174 10.965 14.0302 12.0617 15.118C13.1583 16.206 14.4754 16.75 16.0129 16.75ZM15.9888 15.6946C14.7276 15.6946 13.6596 15.2532 12.7846 14.3705C11.9096 13.488 11.4721 12.4163 11.4721 11.1555C11.4721 9.89435 11.9135 8.82629 12.7962 7.95129C13.6787 7.07629 14.7504 6.63879 16.0112 6.63879C17.2724 6.63879 18.3404 7.08018 19.2154 7.96296C20.0904 8.84546 20.5279 9.91712 20.5279 11.178C20.5279 12.4391 20.0865 13.5071 19.2038 14.3821C18.3213 15.2571 17.2496 15.6946 15.9888 15.6946ZM16.0058 21.5C12.5483 21.5 9.38903 20.5625 6.52792 18.6875C3.66681 16.8125 1.49083 14.3056 0 11.1667C1.49083 8.02782 3.66472 5.52087 6.52167 3.64587C9.37889 1.77087 12.5364 0.833374 15.9942 0.833374C19.4517 0.833374 22.611 1.77087 25.4721 3.64587C28.3332 5.52087 30.5092 8.02782 32 11.1667C30.5092 14.3056 28.3353 16.8125 25.4783 18.6875C22.6211 20.5625 19.4636 21.5 16.0058 21.5ZM15.9954 20.5C19.1929 20.5 22.1226 19.6598 24.7846 17.9792C27.4468 16.2987 29.4815 14.0278 30.8888 11.1667C29.4815 8.3056 27.4485 6.03476 24.7896 4.35421C22.1304 2.67365 19.2021 1.83337 16.0046 1.83337C12.8071 1.83337 9.87736 2.67365 7.21542 4.35421C4.55319 6.03476 2.51847 8.3056 1.11125 11.1667C2.51847 14.0278 4.55153 16.2987 7.21042 17.9792C9.86958 19.6598 12.7979 20.5 15.9954 20.5Z" fill="#33C173"/>
</svg>
