<svg width="18" height="10" viewBox="0 0 18 10" fill="none" xmlns="http://www.w3.org/2000/svg">
<path d="M0 9.5V8.312C0 7.77067 0.270667 7.33333 0.812 7C1.354 6.66667 2.08333 6.5 3 6.5C3.18067 6.5 3.35433 6.507 3.521 6.521C3.68767 6.535 3.85433 6.55567 4.021 6.583C3.85433 6.833 3.72567 7.104 3.635 7.396C3.545 7.68733 3.5 7.986 3.5 8.292V9.5H0ZM4.5 9.5V8.292C4.5 7.5 4.90267 6.87833 5.708 6.427C6.514 5.97567 7.61133 5.75 9 5.75C10.4027 5.75 11.5033 5.97567 12.302 6.427C13.1007 6.87833 13.5 7.5 13.5 8.292V9.5H4.5ZM14.5 9.5V8.292C14.5 7.972 14.455 7.66967 14.365 7.385C14.2743 7.10033 14.1457 6.833 13.979 6.583C14.1183 6.55567 14.2677 6.535 14.427 6.521C14.587 6.507 14.778 6.5 15 6.5C15.9167 6.5 16.646 6.66667 17.188 7C17.7293 7.33333 18 7.77067 18 8.312V9.5H14.5ZM9 7.25C8.222 7.25 7.60033 7.31933 7.135 7.458C6.67033 7.59733 6.31967 7.778 6.083 8H11.896C11.66 7.764 11.3127 7.58 10.854 7.448C10.396 7.316 9.778 7.25 9 7.25ZM3 5.5C2.58333 5.5 2.22933 5.354 1.938 5.062C1.646 4.77067 1.5 4.41667 1.5 4C1.5 3.58333 1.646 3.22933 1.938 2.938C2.22933 2.646 2.58333 2.5 3 2.5C3.41667 2.5 3.77067 2.646 4.062 2.938C4.354 3.22933 4.5 3.58333 4.5 4C4.5 4.41667 4.354 4.77067 4.062 5.062C3.77067 5.354 3.41667 5.5 3 5.5ZM15 5.5C14.5833 5.5 14.2293 5.354 13.938 5.062C13.646 4.77067 13.5 4.41667 13.5 4C13.5 3.58333 13.646 3.22933 13.938 2.938C14.2293 2.646 14.5833 2.5 15 2.5C15.4167 2.5 15.7707 2.646 16.062 2.938C16.354 3.22933 16.5 3.58333 16.5 4C16.5 4.41667 16.354 4.77067 16.062 5.062C15.7707 5.354 15.4167 5.5 15 5.5ZM9 4.75C8.37467 4.75 7.84333 4.53133 7.406 4.094C6.96867 3.65667 6.75 3.12533 6.75 2.5C6.75 1.87467 6.96867 1.34333 7.406 0.906C7.84333 0.468667 8.37467 0.25 9 0.25C9.62533 0.25 10.1567 0.468667 10.594 0.906C11.0313 1.34333 11.25 1.87467 11.25 2.5C11.25 3.12533 11.0313 3.65667 10.594 4.094C10.1567 4.53133 9.62533 4.75 9 4.75ZM9 1.75C8.792 1.75 8.615 1.823 8.469 1.969C8.323 2.115 8.25 2.292 8.25 2.5C8.25 2.708 8.323 2.885 8.469 3.031C8.615 3.177 8.792 3.25 9 3.25C9.208 3.25 9.385 3.177 9.531 3.031C9.677 2.885 9.75 2.708 9.75 2.5C9.75 2.292 9.677 2.115 9.531 1.969C9.385 1.823 9.208 1.75 9 1.75Z" fill="white"/>
</svg>
