<svg width="14" height="16" viewBox="0 0 14 16" fill="none" xmlns="http://www.w3.org/2000/svg">
<path d="M5 11.5L6.0625 10.4375L4.625 9L6.0625 7.5625L5 6.5L2.5 9L5 11.5ZM9 11.5L11.5 9L9 6.5L7.9375 7.5625L9.375 9L7.9375 10.4375L9 11.5ZM1.5 16C1.0875 16 0.734375 15.8531 0.440625 15.5594C0.146875 15.2656 0 14.9125 0 14.5V3.5C0 3.0875 0.146875 2.73438 0.440625 2.44062C0.734375 2.14687 1.0875 2 1.5 2H5.0625C5.17361 1.56944 5.40625 1.21181 5.76042 0.927083C6.11458 0.642361 6.52778 0.5 7 0.5C7.47222 0.5 7.88542 0.642361 8.23958 0.927083C8.59375 1.21181 8.82639 1.56944 8.9375 2H12.5C12.9125 2 13.2656 2.14687 13.5594 2.44062C13.8531 2.73438 14 3.0875 14 3.5V14.5C14 14.9125 13.8531 15.2656 13.5594 15.5594C13.2656 15.8531 12.9125 16 12.5 16H1.5ZM1.5 14.5H12.5V3.5H1.5V14.5ZM7 3C7.14444 3 7.26389 2.95278 7.35833 2.85833C7.45278 2.76389 7.5 2.64444 7.5 2.5C7.5 2.35556 7.45278 2.23611 7.35833 2.14167C7.26389 2.04722 7.14444 2 7 2C6.85556 2 6.73611 2.04722 6.64167 2.14167C6.54722 2.23611 6.5 2.35556 6.5 2.5C6.5 2.64444 6.54722 2.76389 6.64167 2.85833C6.73611 2.95278 6.85556 3 7 3Z" fill="white"/>
</svg>
