<svg width="18" height="18" viewBox="0 0 18 18" fill="none" xmlns="http://www.w3.org/2000/svg">
<path d="M6.64586 17.3333L6.33336 14.7083C6.19448 14.625 6.0417 14.5347 5.87503 14.4375C5.70836 14.3402 5.55559 14.25 5.4167 14.1666L2.9792 15.1875L0.625031 11.125L2.70836 9.54163V8.45829L0.625031 6.87496L2.9792 2.81246L5.4167 3.83329C5.55559 3.74996 5.70836 3.65968 5.87503 3.56246C6.0417 3.46524 6.19448 3.37496 6.33336 3.29163L6.64586 0.666626H11.3542L11.6667 3.29163C11.8056 3.37496 11.9584 3.46524 12.125 3.56246C12.2917 3.65968 12.4445 3.74996 12.5834 3.83329L15.0209 2.81246L17.375 6.87496L15.3125 8.45829V9.54163L17.375 11.125L15.0209 15.1875L12.5834 14.1666C12.4445 14.25 12.2917 14.3402 12.125 14.4375C11.9584 14.5347 11.8056 14.625 11.6667 14.7083L11.3542 17.3333H6.64586ZM9.00003 11.9791C9.81948 11.9791 10.5209 11.6875 11.1042 11.1041C11.6875 10.5208 11.9792 9.8194 11.9792 8.99996C11.9792 8.18052 11.6875 7.47913 11.1042 6.89579C10.5209 6.31246 9.81948 6.02079 9.00003 6.02079C8.18059 6.02079 7.4792 6.31246 6.89586 6.89579C6.31253 7.47913 6.02086 8.18052 6.02086 8.99996C6.02086 9.8194 6.31253 10.5208 6.89586 11.1041C7.4792 11.6875 8.18059 11.9791 9.00003 11.9791ZM9.00003 10.2291C8.6667 10.2291 8.3785 10.1076 8.13545 9.86454C7.89239 9.62149 7.77086 9.33329 7.77086 8.99996C7.77086 8.66663 7.89239 8.37843 8.13545 8.13538C8.3785 7.89232 8.6667 7.77079 9.00003 7.77079C9.33336 7.77079 9.62156 7.89232 9.86461 8.13538C10.1077 8.37843 10.2292 8.66663 10.2292 8.99996C10.2292 9.33329 10.1077 9.62149 9.86461 9.86454C9.62156 10.1076 9.33336 10.2291 9.00003 10.2291ZM8.1667 15.5833H9.83336L10.0834 13.4166C10.4861 13.3055 10.875 13.1389 11.25 12.9166C11.625 12.6944 11.9653 12.4305 12.2709 12.125L14.2917 12.9791L15.125 11.6041L13.3542 10.25C13.4236 10.0555 13.4723 9.85413 13.5 9.64579C13.5278 9.43746 13.5417 9.22218 13.5417 8.99996C13.5417 8.80552 13.5278 8.6076 13.5 8.40621C13.4723 8.20482 13.4306 7.99302 13.375 7.77079L15.1459 6.39579L14.3125 5.02079L12.2917 5.89579C11.9723 5.57635 11.6285 5.30899 11.2604 5.09371C10.8924 4.87843 10.507 4.71524 10.1042 4.60413L9.83336 2.41663H8.1667L7.89586 4.60413C7.49309 4.71524 7.10767 4.87843 6.73961 5.09371C6.37156 5.30899 6.03475 5.5694 5.7292 5.87496L3.70836 5.02079L2.87503 6.39579L4.62503 7.74996C4.56947 7.97218 4.52781 8.18746 4.50003 8.39579C4.47225 8.60413 4.45836 8.80552 4.45836 8.99996C4.45836 9.1944 4.47225 9.39232 4.50003 9.59371C4.52781 9.7951 4.56947 10.0069 4.62503 10.2291L2.87503 11.6041L3.70836 12.9791L5.7292 12.125C6.03475 12.4305 6.37156 12.6909 6.73961 12.9062C7.10767 13.1215 7.49309 13.2847 7.89586 13.3958L8.1667 15.5833Z" fill="white"/>
</svg>
