<svg width="16" height="12" viewBox="0 0 16 12" fill="none" xmlns="http://www.w3.org/2000/svg">
<path d="M6.93744 8.54167C7.25688 8.84722 7.65272 8.98958 8.12494 8.96875C8.59716 8.94792 8.94438 8.77083 9.16661 8.4375L13.4999 2L7.05917 6.33883C6.71413 6.57128 6.52772 6.92014 6.49994 7.38542C6.47216 7.85069 6.61799 8.23611 6.93744 8.54167ZM8.02077 0C8.85411 0 9.60411 0.107639 10.2708 0.322917C10.9374 0.538194 11.5416 0.805556 12.0833 1.125L10.6458 2.0625C10.2569 1.88194 9.85063 1.74306 9.42702 1.64583C9.00341 1.54861 8.53466 1.5 8.02077 1.5C6.21395 1.5 4.67545 2.14931 3.40525 3.44792C2.13504 4.74653 1.49994 6.26389 1.49994 8C1.49994 8.52778 1.53813 8.96181 1.61452 9.30208C1.69091 9.64236 1.81244 10.0417 1.97911 10.5H13.9999C14.1805 10.0417 14.309 9.62153 14.3854 9.23958C14.4617 8.85764 14.4999 8.44444 14.4999 8C14.4999 7.41667 14.4201 6.83333 14.2604 6.25C14.1006 5.66667 13.868 5.13194 13.5624 4.64583L14.4583 3.29167C14.9444 3.95833 15.3229 4.69444 15.5937 5.5C15.8645 6.30556 15.9999 7.125 15.9999 7.95833C15.9999 8.66667 15.9409 9.28472 15.8229 9.8125C15.7048 10.3403 15.5138 10.8264 15.2499 11.2708C15.111 11.5069 14.934 11.6875 14.7187 11.8125C14.5034 11.9375 14.2638 12 13.9999 12H1.99994C1.73605 12 1.49647 11.9375 1.28119 11.8125C1.06591 11.6875 0.888828 11.5069 0.749939 11.2708C0.48605 10.8264 0.295078 10.3403 0.177022 9.8125C0.0589668 9.28472 -6.10352e-05 8.66667 -6.10352e-05 7.95833C-6.10352e-05 6.85106 0.211745 5.81382 0.635356 4.84663C1.05897 3.87943 1.63188 3.03819 2.35411 2.32292C3.07633 1.60764 3.9266 1.04167 4.90492 0.625C5.88322 0.208333 6.92184 0 8.02077 0Z" fill="white"/>
</svg>
